# Blender v3.0.0 OBJ File: 'mjc.blend'
# www.blender.org
mtllib mjc.mtl
o Cube
v 1.000000 1.000000 -1.000000
v 1.000000 -1.000000 -1.000000
v 1.000000 1.000000 1.000000
v 1.000000 -1.000000 1.000000
v -1.000000 1.000000 -1.000000
v -1.000000 -1.000000 -1.000000
v -1.000000 1.000000 1.000000
v -1.000000 -1.000000 1.000000
vt 0.999900 0.999900
vt 0.000100 0.999900
vt 0.000100 0.000100
vt 0.999900 0.000100
vt 1.000000 0.000000
vt 0.000000 0.000000
vt 0.000000 1.000000
vt 1.000000 1.000000
vt 0.000100 0.999900
vt 0.000100 0.000100
vt 0.999900 0.000100
vt 0.999900 0.999900
vt 0.000100 0.999900
vt 0.000100 0.000100
vt 0.000100 0.000100
vt 0.999900 0.000100
vt 0.999900 0.999900
vt 0.000100 0.999900
vt 0.000100 0.000100
vt 0.999900 0.000100
vt 0.999900 0.999900
vt 0.000100 0.999900
vn 1.0000 0.0000 0.0000
vn -1.0000 0.0000 0.0000
vn 0.0000 0.0000 -1.0000
vn 0.0000 0.0000 1.0000
vn 0.0000 1.0000 0.0000
vn 0.0000 -1.0000 0.0000
usemtl right
s off
f 2/1/1 1/2/1 3/3/1 4/4/1
usemtl Material.001
f 8/5/2 7/6/2 5/7/2 6/8/2
usemtl up
f 6/9/3 5/10/3 1/11/3 2/1/3
usemtl down
f 4/4/4 3/12/4 7/13/4 8/14/4
usemtl front
f 1/15/5 5/16/5 7/17/5 3/18/5
usemtl back
f 6/19/6 2/20/6 4/21/6 8/22/6
